Coordinates
version=1
nRows=7
nColumns=40
inDegrees=yes

Units are S.I. units (second, meters, Newtons, ...)
Angles are in degrees.

endheader
time	pelvis_tilt	pelvis_list	pelvis_rotation	pelvis_tx	pelvis_ty	pelvis_tz	hip_flexion_r	hip_adduction_r	hip_rotation_r	knee_angle_r	knee_angle_r_beta	ankle_angle_r	subtalar_angle_r	mtp_angle_r	hip_flexion_l	hip_adduction_l	hip_rotation_l	knee_angle_l	knee_angle_l_beta	ankle_angle_l	subtalar_angle_l	mtp_angle_l	lumbar_extension	lumbar_bending	lumbar_rotation	arm_flex_r	arm_add_r	arm_rot_r	elbow_flex_r	pro_sup_r	wrist_flex_r	wrist_dev_r	arm_flex_l	arm_add_l	arm_rot_l	elbow_flex_l	pro_sup_l	wrist_flex_l	wrist_dev_l
      1.62000000	     -0.08752014	     -3.02556342	      9.15489192	     -0.11135139	      0.96037054	     -1.00060707	      8.37342046	      2.83785545	    -20.89852158	    -16.30959152	     -0.28465607	      3.82875680	     -0.91217872	     -3.22223505	     14.73889768	     11.79032043	     10.47831722	    -53.55806545	     -0.93476458	      1.73327539	      9.33813529	     -8.34835869	     -3.09719320	      2.89732657	     -3.01367944	      1.88758759	    -10.73730780	    -24.05303612	     17.43145122	     89.95437384	      0.00000000	      0.00000000	     -0.03051996	      9.95654162	     -1.26865684	     21.12661613	     89.95437384	      0.00000000	      0.00000000
      1.63000000	     -0.02876355	     -2.42547216	      8.68494684	     -0.10449868	      0.96137694	     -0.99932522	      7.57864340	      2.50284764	    -20.05145481	    -15.87910327	     -0.27714263	      4.23003542	     -0.70170890	     -3.38571842	     15.22022829	     10.92254177	     11.09834661	    -52.52125590	     -0.91666884	      2.39963187	     10.58001241	     -7.98862582	     -3.35451745	      2.24057837	     -2.23058042	      2.12915582	    -10.85799790	    -23.64418178	     17.53249211	     89.95437384	      0.00000000	      0.00000000	     -0.37646681	     10.11380310	     -1.42127679	     20.44969253	     89.95437384	      0.00000000	      0.00000000
      1.64000000	      0.14125214	     -1.77090746	      8.21339093	     -0.09777135	      0.96248918	     -0.99800138	      6.80722129	      2.01052025	    -19.79371779	    -15.77864053	     -0.27538923	      4.58178392	     -0.73940657	     -3.61142156	     15.51925412	     10.09832184	     11.89372666	    -51.21805566	     -0.89392371	      2.69779816	     11.85331337	     -7.27997416	     -3.78560142	      1.50706424	     -1.50606665	      2.27736540	    -10.90586134	    -23.12640497	     17.92452733	     89.95437384	      0.00000000	      0.00000000	     -0.90449515	     10.32403384	     -1.28574811	     20.26990237	     89.95437384	      0.00000000	      0.00000000
      1.65000000	      0.10427574	     -1.28937700	      7.81698961	     -0.09119599	      0.96306820	     -0.99666872	      6.33103297	      1.66681671	    -19.50629540	    -15.74036530	     -0.27472120	      4.85635297	     -0.69860559	     -3.88315662	     16.11812822	      9.41812791	     12.47471174	    -49.89416141	     -0.87081739	      3.18273501	     12.51969328	     -6.66686428	     -3.91904673	      0.93457450	     -0.90348471	      2.53267739	    -10.95767084	    -22.64229507	     18.10781290	     89.95437384	      0.00000000	      0.00000000	     -1.38567936	     10.53303133	     -1.06398168	     19.91791676	     89.95437384	      0.00000000	      0.00000000
      1.66000000	     -0.09336535	     -1.23412376	      7.68638451	     -0.08469949	      0.96306925	     -0.99546286	      6.06563774	      1.73946703	    -19.66527969	    -15.64260539	     -0.27301497	      5.10207341	     -0.78031459	     -3.92379076	     17.13631857	      9.28809918	     12.85491562	    -48.72052556	     -0.85033358	      3.50054489	     12.57277493	     -6.51932563	     -3.81199332	      0.79466244	     -0.48332371	      2.70117947	    -11.02210660	    -22.42437019	     18.31610530	     89.95437384	      0.00000000	      0.00000000	     -1.89868585	     10.72651857	     -1.00256570	     19.64687386	     89.95437384	      0.00000000	      0.00000000
      1.67000000	     -0.29443675	     -1.07163196	      7.41205036	     -0.07814769	      0.96305101	     -0.99428861	      5.78007631	      1.73035603	    -19.47934983	    -15.48852346	     -0.27032573	      5.33400277	     -0.78807850	     -3.98652956	     17.96545661	      8.98251022	     13.29749435	    -47.25207820	     -0.82470434	      3.97421439	     12.79172025	     -6.33253581	     -3.68655313	      0.53278808	      0.02295936	      2.87698612	    -11.08523864	    -22.11341782	     18.57110908	     89.95437384	      0.00000000	      0.00000000	     -2.43314302	     10.90404892	     -0.88244118	     19.38190420	     89.95437384	      0.00000000	      0.00000000
      1.68000000	      0.00696600	      0.17318571	      6.77899548	     -0.07158656	      0.96423719	     -0.99369989	      4.92482889	      0.43265042	    -19.02427046	    -15.55990176	     -0.27157152	      4.84087215	     -0.34056775	    -10.28170842	     17.64419980	      7.29461799	     13.93169305	    -45.14628794	     -0.78795137	      6.33703566	     13.33005859	      4.26374921	     -4.32254666	     -0.80503911	      0.68157299	      3.16482684	    -11.19873394	    -20.79866097	     18.91540436	     89.95437384	      0.00000000	      0.00000000	     -2.87178052	     11.03002064	      0.14583559	     19.14736550	     89.95437384	      0.00000000	      0.00000000
